<svg version="1.0" xmlns="http://www.w3.org/2000/svg"
 width="96.000000pt" height="96.000000pt" viewBox="0 0 96.000000 96.000000"
 preserveAspectRatio="xMidYMid meet">
<metadata>
Created by potrace 1.10, written by Peter Selinger 2001-2011
</metadata>
<g transform="translate(0.000000,96.000000) scale(0.100000,-0.100000)"
fill="#dee2e6" stroke="none">
<path d="M353 948 c1 -6 -11 -16 -28 -21 -73 -24 -125 -57 -191 -122 -66 -66
-95 -111 -122 -196 -16 -49 -15 -224 2 -279 37 -119 124 -221 240 -280 80 -41
98 -37 94 22 -3 43 -3 43 -49 49 -61 9 -85 23 -104 59 -8 16 -29 45 -45 64
-26 29 -28 35 -14 40 19 7 37 -4 80 -52 42 -45 101 -55 133 -21 11 12 21 28
21 34 0 6 -24 19 -52 29 -61 22 -80 36 -119 90 -26 35 -29 47 -29 115 0 55 5
87 19 114 13 26 17 49 14 80 -9 73 42 96 112 52 28 -18 282 -18 310 0 70 44
121 21 112 -52 -3 -31 1 -54 14 -80 14 -27 19 -59 19 -114 0 -68 -3 -80 -28
-115 -38 -52 -55 -65 -114 -86 -63 -22 -65 -24 -50 -48 7 -12 12 -57 12 -110
0 -111 7 -116 96 -70 115 59 217 180 239 283 3 15 12 27 20 27 12 0 15 20 15
115 0 95 -3 115 -15 115 -8 0 -17 12 -21 28 -28 122 -169 264 -309 309 -16 5
-29 15 -28 21 2 9 -30 12 -117 12 -87 0 -119 -3 -117 -12z"/>
</g>
</svg>